<?xml version="1.0" encoding="UTF-8" standalone="no"?>
<svg
   xmlns:dc="http://purl.org/dc/elements/1.1/"
   xmlns:cc="http://creativecommons.org/ns#"
   xmlns:rdf="http://www.w3.org/1999/02/22-rdf-syntax-ns#"
   xmlns:svg="http://www.w3.org/2000/svg"
   xmlns="http://www.w3.org/2000/svg"
   xmlns:sodipodi="http://sodipodi.sourceforge.net/DTD/sodipodi-0.dtd"
   xmlns:inkscape="http://www.inkscape.org/namespaces/inkscape"
   id="svg"
   version="1.1"
   width="400"
   height="403.76766091051803"
   viewBox="0, 0, 400,403.76766091051803"
   sodipodi:docname="diens.svg"
   inkscape:version="0.92.4 (5da689c313, 2019-01-14)">
  <metadata
     id="metadata3764">
    <rdf:RDF>
      <cc:Work
         rdf:about="">
        <dc:format>image/svg+xml</dc:format>
        <dc:type
           rdf:resource="http://purl.org/dc/dcmitype/StillImage" />
        <dc:title></dc:title>
      </cc:Work>
    </rdf:RDF>
  </metadata>
  <defs
     id="defs3762" />
  <sodipodi:namedview
     pagecolor="#ffffff"
     bordercolor="#666666"
     borderopacity="1"
     objecttolerance="10"
     gridtolerance="10"
     guidetolerance="10"
     inkscape:pageopacity="0"
     inkscape:pageshadow="2"
     inkscape:window-width="1366"
     inkscape:window-height="715"
     id="namedview3760"
     showgrid="false"
     inkscape:zoom="1.2042793"
     inkscape:cx="207.87191"
     inkscape:cy="206.16103"
     inkscape:window-x="-8"
     inkscape:window-y="-8"
     inkscape:window-maximized="1"
     inkscape:current-layer="svg" />
  <path
     style="fill:#204c99;fill-rule:evenodd;stroke:none"
     inkscape:connector-curvature="0"
     d="m 188.65792,6.6903015 c -0.559,0.355 -2.237,4.5399995 -4.114,10.2609995 -0.65,1.98 -1.359,3.913 -1.576,4.295 -0.217,0.382 -0.395,1.136 -0.395,1.676 0,0.54 -0.18,1.093 -0.4,1.229 -0.22,0.136 -0.4,0.676 -0.4,1.2 0,0.524 -0.18,1.064 -0.4,1.2 -0.22,0.136 -0.4,0.856 -0.4,1.6 0,0.744 -0.18,1.464 -0.4,1.6 -0.22,0.136 -0.4,0.665 -0.4,1.175 0,3.315 -1.488,4.366 -7.093,5.013 -2.032,0.235 -4.158,0.603 -4.726,0.819 -0.568,0.216 -1.58,0.393 -2.247,0.393 -0.668,0 -3.098,0.549 -5.399,1.219 -4.986,1.453 -5.257,1.395 -7.171,-1.538 -0.82,-1.254 -2.362,-3.473 -3.427,-4.93 -1.065,-1.457 -1.937,-2.852 -1.937,-3.1 0,-0.248 -0.135,-0.452 -0.3,-0.454 -0.165,-10e-4 -0.75,-0.674 -1.3,-1.494 -1.144,-1.706 -1.714,-2.452 -3.413,-4.466 -0.666,-0.79 -1.998,-2.478 -2.958,-3.749 -2.176,-2.883 -2.094,-2.839 -3.86,-2.101 -0.807,0.337 -1.717,0.613 -2.022,0.613 -0.306,0 -1.319,0.339 -2.251,0.754 -0.933,0.415 -2.776,1.149 -4.096,1.632 -3.826,1.399 -3.585,1.046 -3.731,5.456 -0.153,4.633 0.566,17.799 1.216,22.25 0.601,4.123 0.332,4.634 -3.399,6.453 -1.639,0.799 -4.347,2.345 -6.017,3.435 -1.67,1.091 -3.629,2.286 -4.353,2.657 -0.724,0.371 -1.406,0.785 -1.516,0.92 -0.11,0.135 -1.239,0.924 -2.508,1.754 -2.724,1.78 -1.702,2.138 -10.214,-3.578 -6.683,-4.487 -16.529,-10.533 -17.152,-10.533 -0.206,0 -0.726,0.327 -1.155,0.727 -0.429,0.4 -1.073,0.895 -1.431,1.1 -0.358,0.205 -2.469,2.122 -4.692,4.26 -4.57,4.395 -4.352,3.451 -1.994,8.631 0.63,1.385 1.146,2.602 1.146,2.704 0,0.446 3.308,7.623 6.538,14.187 1.464,2.975 2.662,5.633 2.662,5.906 0,0.442 -2.851,4.193 -4.253,5.595 -0.297,0.297 -1.563,1.923 -2.813,3.615 -1.251,1.691 -2.939,3.975 -3.751,5.074999 -0.813,1.1 -1.806,2.517 -2.208,3.149 -0.949,1.492 -4.595,1.261 -9.175,-0.582 -0.44,-0.177 -1.52,-0.407 -2.4,-0.512 -0.88,-0.104 -2.41,-0.399 -3.4,-0.655 -0.99,-0.256 -2.88,-0.622 -4.2,-0.812 -1.32,-0.191 -3.39,-0.541 -4.6,-0.778999 -1.21,-0.238 -3.19,-0.534 -4.4,-0.658 l -2.2,-0.225 -2.226,4.136999 c -2.773,5.153 -4.232,9.146 -3.694,10.108 0.679,1.213 12.958,13.418 17.008,16.905 4.518,3.889 4.373,3.301 2.337,9.516 -0.866,2.645 -1.776,5.583 -2.023,6.531 -0.657,2.528 -1.666,3.364 -3.936,3.26 -10.228,-0.471 -36.4300004,0.073 -36.6480004,0.761 -0.71,2.237 -17.017,2.066 187.1250004,1.956 l 186.857,-0.1 0.134,-0.946 c 0.238,-1.68 -0.001,-1.701 -19.038,-1.666 -21.211,0.039 -19.235,0.473 -20.257,-4.451 -1.061,-5.109 -3.607,-12.941 -5.672,-17.448 -0.532,-1.161 -0.967,-2.206 -0.967,-2.322 0,-0.455 -5.041,-10.947 -7.19,-14.967 -0.294,-0.55 -0.719,-1.36 -0.943,-1.8 -0.225,-0.44 -0.602,-1.16 -0.838,-1.6 -0.583,-1.084 -5.9,-9.039999 -6.547,-9.795999 -0.285,-0.332 -1.706,-2.134 -3.158,-4.004 -4.115,-5.299 -16.257,-18.178 -20.68,-21.936 -1.124,-0.955 -2.477,-2.103 -3.006,-2.551 -2.687,-2.276 -11.515,-8.45 -15.038,-10.516 -2.2,-1.29 -4.27,-2.564 -4.6,-2.829 -3.095,-2.493 -20.25,-10.101 -30.2,-13.394 -1.54,-0.51 -2.997,-1.159 -3.238,-1.442 -0.241,-0.283 -1.591,-0.783 -3,-1.11 -1.409,-0.328 -3.642,-0.934 -4.962,-1.347 -1.32,-0.413 -4.2,-1.064 -6.4,-1.446 -2.2,-0.382 -4.72,-0.88 -5.6,-1.107 -3.331,-0.857 -14.34,-1.884 -22.771,-2.124 -3.662,-0.104 -6.55,-0.359 -6.791,-0.6 -0.344,-0.344 -0.585,-10.219 -0.637,-26.0979995 -0.001,-0.402 -2.068,-0.372 -2.716,0.039 m 14.254,44.2159995 c 2.728,2.013 14.223,12.695 16.835,15.645 0.779,0.88 2.678,2.917 4.221,4.527 1.542,1.61 2.969,3.23 3.171,3.6 0.203,0.37 1.48,2.113 2.839,3.873 3.174,4.111 9.943,14.15 11.792,17.49 0.332,0.599 1.281,2.253 2.109,3.675 4.797,8.237999 6.51,12.676999 5.168,13.394999 -1.637,0.877 -13.656,3.626 -22.79,5.213 -9.821,1.707 -24.912,2.959 -25.735,2.136 -0.216,-0.216 -0.364,-14.6 -0.36,-35.112999 0.007,-38.646 -0.158,-36.586 2.75,-34.441 m 27.285,0.231 c 5.193,1.324 13.736,4.093 16.202,5.251 0.895,0.419 1.761,0.763 1.926,0.763 0.165,0 1.283,0.45 2.485,1 1.203,0.55 2.364,1 2.581,1 0.604,0 10.158,4.856 14.612,7.427 2.184,1.261 4.314,2.49 4.735,2.732 6.716,3.866 25.035,19.59 25.035,21.488 0,0.49 -0.754,1.226 -2.11,2.058 -1.16,0.712 -2.465,1.516 -2.9,1.785 -3.602,2.235 -21.955,10.797999 -26.236,12.240999 -2.982,1.006 -3.313,0.747 -5.977,-4.684 -2.343,-4.773999 -5.183,-10.053999 -5.841,-10.857999 -0.185,-0.226 -0.696,-1.126 -1.136,-2 -0.777,-1.543 -3.697,-5.992 -7.527,-11.466 -1.03,-1.472 -1.873,-2.788 -1.873,-2.924 0,-0.217 -2.26,-3.273 -2.809,-3.799 -0.115,-0.11 -1.105,-1.275 -2.2,-2.589 -1.095,-1.313 -2.441,-2.928 -2.991,-3.588 -1.515,-1.817 -5.061,-5.63 -8.329,-8.958 -6.015,-6.124 -5.633,-6.916 2.353,-4.879 m -49.847,1.703 c 0.644,0.919 0.926,10.939 0.367,13.027 -0.325,1.211 -2.096,2.084 -4.231,2.084 -2.073,0 -8.994,1.551 -15.113,3.386 -6.2,1.86 -9.578,3.127 -10.216,3.832 -0.389,0.43 -0.995,0.783 -1.346,0.784 -0.591,0.001 -5.964,2.627 -12.638,6.177 -2.829,1.504 -10.204,6.363 -13.259,8.734 -0.912,0.708 -2.802,2.146 -4.2,3.197 -3.505,2.634 -14.238,13.362999 -15.168,15.162999 -0.419,0.81 -0.935,1.58 -1.147,1.711 -0.507,0.313 -4.026,4.945 -4.026,5.299 0,0.15 -0.419,0.733 -0.931,1.295 -0.77,0.845 -2.257,3.084 -5.062,7.622 -3.014,4.876 -7.958,15.497 -9.682,20.8 -1.303,4.01 -1.256,3.992 -10.004,3.886 -9.138,-0.111 -8.632,0.443 -6.469,-7.086 1.029,-3.584 7.557,-17.976 10.16,-22.4 0.324,-0.551 6.463,-10.559 7.388,-12.043 5.53,-8.879999 20.578,-23.969999 32.4,-32.491999 7.327,-5.282 11.946,-7.981 19.6,-11.456 1.54,-0.699 3.34,-1.542 4,-1.872 0.66,-0.331 2.73,-1.138 4.6,-1.795 1.87,-0.656 3.742,-1.38 4.159,-1.608 2.619,-1.431 18.863,-5.613 23.841,-6.139 1.43,-0.151 2.87,-0.431 3.2,-0.623 1.176,-0.682 3.124,-0.415 3.777,0.517 m 128.664,50.610999 c 2.958,3.16 10.015,15.332 14.089,24.3 3.976,8.752 7.658,20.172 6.784,21.046 -0.208,0.208 -11.637,0.316 -27.119,0.257 l -26.759,-0.103 -0.483,-2.2 c -0.266,-1.21 -0.702,-3.28 -0.969,-4.6 -0.832,-4.114 -3.884,-15.052 -4.996,-17.908 -1.206,-3.095 -0.693,-4.031 3.012,-5.494 1.21,-0.478 3.01,-1.189 4,-1.579 0.99,-0.391 3.707,-1.625 6.037,-2.742 2.33,-1.117 5.271,-2.488 6.534,-3.047 1.263,-0.559 2.835,-1.469 3.494,-2.023 0.658,-0.554 1.369,-1.007 1.58,-1.007 0.211,0 2.29,-1.08 4.62,-2.4 2.33,-1.32 4.32,-2.4 4.422,-2.4 0.103,0 0.644,-0.36 1.204,-0.8 1.57,-1.235 2.936,-1.025 4.55,0.7 m -116.364,4.748 c 0.574,0.354 0.4,40.855 -0.177,41.228 -0.663,0.429 -59.471,0.655 -62.3,0.239 -3.24,-0.476 -3.222,-0.637 0.828,-7.715 2.104,-3.677 9.701,-11.925 14.035,-15.238 1.685,-1.288 3.125,-2.484 3.2,-2.658 0.207,-0.476 5.159,-4.104 5.603,-4.104 0.213,0 0.96,-0.437 1.661,-0.97 1.666,-1.27 12.651,-6.63 13.588,-6.63 0.399,0 1.211,-0.243 1.805,-0.541 0.594,-0.297 2.7,-0.943 4.68,-1.435 1.98,-0.492 3.96,-0.986 4.4,-1.098 0.44,-0.111 2.409,-0.459 4.376,-0.773 1.966,-0.314 3.676,-0.673 3.8,-0.799 0.241,-0.245 3.967,0.164 4.501,0.494 m 63.093,18.096 c 0.786,1.469 3.609,10.629 4.578,14.856 1.375,5.997 1.523,6.837 1.306,7.405 -0.371,0.966 -60.965,0.893 -61.336,-0.074 -0.51,-1.33 -0.35,-13.659 0.185,-14.193 0.329,-0.33 2.596,-0.608 6.575,-0.806 3.34,-0.166 6.534,-0.402 7.098,-0.524 0.563,-0.122 3.454,-0.489 6.424,-0.816 8.892,-0.978 21.435,-3.388 28.8,-5.532 4.237,-1.234 5.836,-1.313 6.37,-0.316 m 47.83,33.757 c -16.883,5.857 -15.167,23.321 3,30.525 7.87,3.121 10.791,6.465 8.921,10.213 -2.032,4.073 -7.109,5.004 -13.399,2.458 -3.442,-1.394 -5.21,-5.875 -3.722,-9.435 1.072,-2.565 0.914,-2.793 -1.7,-2.467 -4.282,0.535 -5.288,1.411 -5.288,4.605 -0.001,9.475 8.178,14.284 21.798,12.817 17.88,-1.925 19.823,-21.932 2.89,-29.761 -0.825,-0.381 -1.5,-0.955 -1.5,-1.275 0,-0.319 -0.276,-0.581 -0.613,-0.581 -2.405,0 -8.96,-3.152 -10.54,-5.069 -4.238,-5.142 1.339,-9.158 10.434,-7.515 3.623,0.654 6.629,5.763 5.087,8.645 -0.623,1.163 -0.238,1.333 2.713,1.2 4.01,-0.18 4.451,-0.623 4.04,-4.061 -0.572,-4.792 -5.215,-10 -8.915,-10 -0.527,0 -1.07,-0.18 -1.206,-0.4 -0.327,-0.529 -10.428,-0.444 -12,0.101 m -230.503,24.199 0.103,23.9 12,0.118 c 12.282,0.12 12.724,0.082 17.2,-1.516 3.682,-1.313 8.469,-4.844 9.46,-6.977 0.211,-0.454 0.723,-1.455 1.137,-2.225 0.415,-0.77 0.88,-2.21 1.035,-3.2 0.155,-0.99 0.5,-2.43 0.766,-3.2 0.505,-1.462 0.55,-13.113 0.053,-13.917 -0.143,-0.232 -0.431,-1.322 -0.64,-2.422 -1.152,-6.076 -5.469,-11.097 -11.096,-12.906 -1.493,-0.48 -3.028,-1.026 -3.41,-1.214 -0.382,-0.187 -6.548,-0.341 -13.703,-0.341 h -13.008 l 0.103,23.9 m 65.2,0 0.103,23.9 h 7.2 7.2 l 0.103,-23.9 0.103,-23.9 h -7.406 -7.406 l 0.103,23.9 m 39.503,0.1 v 24 h 17.2 17.2 l 0.071,-1.6 c 0.04,-0.88 0.085,-2.005 0.1,-2.5 l 0.029,-0.9 -9.8,-0.2 -9.8,-0.2 v -9.2 -9.2 l 6.8,-0.2 6.8,-0.2 v -2.2 -2.2 l -6.8,-0.2 -6.8,-0.2 -0.109,-6.9 -0.11,-6.9 h 8.61 8.609 v -2.6 -2.6 h -16 -16 v 24 m 56.097,-0.112 0.103,23.912 h 2.6 2.6 l 0.2,-12.881 c 0.185,-11.93 0.465,-14.839 1.315,-13.692 0.196,0.264 3.921,5.987 4.929,7.573 0.49,0.77 1.4,2.323 2.023,3.45 0.623,1.128 2.497,4.098 4.163,6.6 1.667,2.503 3.636,5.5 4.375,6.661 1.607,2.524 1.698,2.552 7.795,2.405 l 4.8,-0.116 v -23.8 -23.8 l -2.467,-0.118 c -3.099,-0.149 -2.84,-1.388 -2.869,13.718 -0.029,15.268 0.002,14.279 -0.465,15 -0.547,0.845 -7.232,-8.35 -8.509,-11.705 -0.148,-0.388 -1.039,-1.922 -1.979,-3.409 -0.941,-1.487 -1.891,-2.997 -2.111,-3.354 -0.22,-0.358 -0.985,-1.488 -1.7,-2.511 -0.715,-1.024 -1.313,-1.987 -1.329,-2.141 -0.016,-0.154 -0.883,-1.45 -1.926,-2.88 l -1.898,-2.6 -4.877,-0.112 -4.876,-0.113 0.103,23.913 m -140.297,-18.919 c 2.087,0.726 3.919,2.888 4.492,5.301 1.838,7.735 1.47,25.092 -0.618,29.184 -1.571,3.078 -6.098,5.033 -9.041,3.903 -0.66,-0.253 -1.018,-38.039 -0.366,-38.69 0.463,-0.464 3.868,-0.278 5.533,0.302 m -83.382,52.409 c -0.2640004,0.318 -0.4210004,0.993 -0.3490004,1.5 l 0.131,0.922 19.3150004,0.2 c 20.269,0.21 20.058,0.19 20.079,1.89 0.02,1.629 5.225,15.884 8.047,22.038 0.637,1.39 1.159,2.639 1.159,2.774 0,0.66 5.965,11.922 8.094,15.281 1.331,2.099 2.62,4.177 2.863,4.617 2.368,4.275 13.421,17.308 20.498,24.17 8.964,8.691 16.33,14.226 29.345,22.046 5.344,3.211 9.258,5.216 23.4,11.989 3.592,1.721 9.917,5.858 13.8,9.027 7.356,6.004 11.299,10.855 15.434,18.991 2.7,5.313 2.68,5.328 3.179,-2.423 0.879,-13.645 -2.906,-24.355 -11.883,-33.626 -4.178,-4.315 -7.616,-6.388 -15.53,-9.363 -0.99,-0.372 -2.43,-0.95 -3.2,-1.285 -0.77,-0.334 -1.76,-0.751 -2.2,-0.927 -1.303,-0.521 -7.885,-3.592 -9.4,-4.386 -4.069,-2.131 -6.308,-3.383 -7.262,-4.06 -0.584,-0.414 -1.179,-0.753 -1.323,-0.753 -0.374,0 -8.36,-5.372 -11.215,-7.544 -6.99,-5.316 -15.382,-13.602 -23.366,-23.068 -4.217,-5.001 -9.785,-14.021 -13.821,-22.388 -1.486,-3.08 -3.021,-6.23 -3.411,-7 -0.39,-0.77 -1.341,-3.02 -2.112,-5 -3.43,-8.8 -3.663,-9.865 -2.316,-10.586 0.854,-0.457 253.681,-0.52 255.826,-0.064 1.678,0.357 1.681,1.228 0.015,5.879 -1.613,4.504 -1.545,4.339 -3.768,9.094 -0.906,1.937 -1.66,3.737 -1.676,4 -0.016,0.262 -0.361,1.017 -0.766,1.677 -0.406,0.66 -1.862,3.418 -3.237,6.128 -3.779,7.45 -10.58,17.325 -15.753,22.872 -5.455,5.851 -6.773,7.174 -8.768,8.8 -1.214,0.99 -2.217,1.991 -2.228,2.224 -0.105,2.293 -19.437,15.382 -30.419,20.596 -2.31,1.097 -4.496,2.161 -4.859,2.364 -0.362,0.204 -3.242,1.386 -6.4,2.627 -20.677,8.125 -29.272,20.792 -28.651,42.223 0.259,8.932 0.435,9.116 3.265,3.405 4.719,-9.523 10.953,-16.243 21.645,-23.335 4.231,-2.806 6.635,-4.084 16.69,-8.87 4.119,-1.961 10.736,-5.516 14.704,-7.9 3.968,-2.384 7.528,-4.514 7.911,-4.734 4.841,-2.776 14.497,-10.625 21.651,-17.599 19.213,-18.732 30.823,-38.291 39.532,-66.601 0.372,-1.21 0.828,-2.38 1.014,-2.6 0.212,-0.251 7.508,-0.474 19.618,-0.6 l 19.28,-0.2 0.12,-1.027 c 0.09,-0.779 -0.131,-1.141 -0.919,-1.5 -1.713,-0.78 -371.135,-0.676 -371.783,0.105 m 80.382,19.43 c 0,1.106 5.751,10.99 8.579,14.744 0.892,1.183 1.981,2.647 2.421,3.252 4.254,5.85 12.346,13.883 19.429,19.287 1.007,0.768 2.177,1.683 2.6,2.034 3.047,2.52 14.081,9.759 18.771,12.313 4.276,2.33 16.888,8.672 17.85,8.978 0.515,0.163 2.245,0.902 3.845,1.641 1.6,0.738 3.167,1.343 3.483,1.343 0.316,0 0.686,0.18 0.822,0.4 0.136,0.22 0.577,0.4 0.98,0.4 0.403,0 2.327,1.05 4.276,2.334 12.564,8.276 17.183,22.35 14.263,43.463 -1.929,13.956 -0.85,30.617 2.262,34.913 3.473,4.795 10.553,3.482 13.525,-2.51 2.253,-4.542 2.819,-17.856 1.303,-30.641 -2.438,-20.555 -0.229,-31.798 7.947,-40.465 3.335,-3.535 10.69,-8.294 12.82,-8.294 0.194,0 1.698,-0.63 3.342,-1.4 1.644,-0.77 3.111,-1.4 3.258,-1.4 0.535,0 16.54,-8.125 19.024,-9.657 0.55,-0.339 2.797,-1.68 4.993,-2.98 2.197,-1.3 5.077,-3.188 6.4,-4.196 1.324,-1.008 3.196,-2.33 4.16,-2.938 5.186,-3.271 16.014,-12.764 19.606,-17.19 7.465,-9.198 8.209,-10.241 12.45,-17.439 3.954,-6.712 3.962,-6.783 0.691,-6.532 -1.375,0.106 -2.86,0.346 -3.3,0.535 -0.44,0.188 -1.34,0.437 -2,0.552 -0.66,0.115 -2.055,0.397 -3.1,0.627 -1.045,0.23 -2.665,0.584 -3.6,0.788 -0.935,0.203 -2.42,0.577 -3.3,0.83 -0.88,0.253 -2.32,0.615 -3.2,0.804 -0.88,0.189 -2.95,0.7 -4.6,1.135 -1.65,0.435 -5.7,1.455 -9,2.266 -3.3,0.812 -6.313,1.637 -6.695,1.835 -0.382,0.198 -1.209,0.36 -1.838,0.36 -0.628,0 -1.452,0.341 -1.829,0.758 -0.377,0.417 -1.17,0.856 -1.762,0.976 -1.436,0.289 -3.913,0.909 -5.876,1.47 -1.45,0.414 -3.193,0.817 -6.305,1.46 -0.608,0.126 -1.203,0.387 -1.324,0.582 -0.12,0.195 -0.855,0.354 -1.633,0.354 -0.778,0 -2.343,0.259 -3.476,0.576 -1.766,0.494 -12.98,2.009 -20.862,2.818 -9.916,1.018 -30.18,0.941 -41.8,-0.158 -5.645,-0.534 -16.497,-2.011 -18.157,-2.471 -0.856,-0.237 -2.386,-0.583 -3.4,-0.77 -1.014,-0.186 -2.563,-0.543 -3.443,-0.793 -0.88,-0.25 -2.32,-0.631 -3.2,-0.847 -8.322,-2.037 -10.146,-2.583 -10.89,-3.255 -0.425,-0.385 -1.106,-0.7 -1.513,-0.7 -0.407,0 -1.293,-0.175 -1.969,-0.39 -1.105,-0.351 -3.923,-1.078 -7.828,-2.019 -0.77,-0.186 -2.12,-0.541 -3,-0.79 -0.88,-0.249 -2.59,-0.684 -3.8,-0.968 -1.21,-0.284 -3.01,-0.734 -4,-1 -8.346,-2.246 -10.871,-2.833 -12.182,-2.833 -0.534,0 -1.082,-0.18 -1.218,-0.4 -0.136,-0.22 -0.831,-0.4 -1.544,-0.4 -0.713,0 -1.467,-0.158 -1.676,-0.352 -0.844,-0.78 -5.78,-0.815 -5.78,-0.04"
     id="path0" />
</svg>
