<?xml version="1.0" standalone="no"?>
<!DOCTYPE svg PUBLIC "-//W3C//DTD SVG 20010904//EN"
 "http://www.w3.org/TR/2001/REC-SVG-20010904/DTD/svg10.dtd">
<svg version="1.0" xmlns="http://www.w3.org/2000/svg"
 width="808.000000pt" height="808.000000pt" viewBox="0 0 808.000000 808.000000"
 preserveAspectRatio="xMidYMid meet">
<metadata>
Created by potrace 1.11, written by Peter Selinger 2001-2013
</metadata>
<g transform="translate(0.000000,808.000000) scale(0.100000,-0.100000)"
fill="#000000" stroke="none">
<path d="M3787 7893 c-33 -75 -127 -357 -127 -381 0 -10 -3 -22 -7 -26 -4 -3
-8 -15 -10 -25 -7 -51 -22 -69 -70 -85 -26 -8 -68 -17 -93 -20 -68 -7 -183
-30 -265 -53 -16 -5 -36 -8 -42 -7 -7 1 -17 2 -23 3 -11 1 -140 184 -140 199
0 6 -4 12 -8 14 -5 2 -32 35 -62 73 -79 103 -124 159 -133 166 -11 8 -86 -13
-186 -53 -68 -27 -86 -38 -91 -58 -10 -42 1 -386 16 -475 18 -108 10 -122 -96
-176 -36 -19 -66 -37 -68 -41 -2 -5 -10 -8 -18 -8 -8 0 -14 -4 -14 -10 0 -5
-5 -10 -10 -10 -6 0 -48 -25 -95 -55 -46 -30 -91 -55 -101 -55 -9 0 -48 21
-87 48 -40 26 -79 52 -88 57 -8 6 -37 24 -63 40 -27 17 -54 36 -61 43 -8 6
-18 12 -22 12 -5 0 -23 10 -40 23 -17 12 -56 35 -86 52 l-55 29 -46 -38 c-89
-73 -166 -153 -166 -173 0 -11 14 -51 30 -89 17 -38 35 -78 39 -89 13 -29 62
-135 121 -258 l51 -108 -37 -47 c-21 -26 -41 -49 -45 -52 -3 -3 -46 -59 -95
-125 -48 -66 -95 -125 -103 -131 -18 -14 -80 -9 -141 11 -25 8 -56 16 -70 19
-14 3 -50 10 -80 16 -58 12 -102 19 -135 24 -11 2 -36 6 -55 9 -66 13 -105 13
-115 3 -6 -6 -29 -49 -52 -96 -87 -179 -93 -154 90 -334 84 -83 179 -174 209
-203 l56 -52 -9 -43 c-11 -47 -54 -186 -73 -231 -11 -27 -30 -38 -71 -38 -11
0 -126 -1 -255 -1 -224 1 -415 -4 -453 -11 -24 -4 -46 -27 -27 -28 8 0 44 -3
80 -7 36 -4 1716 -7 3734 -7 3534 0 3669 1 3672 18 1 11 -6 21 -19 26 -12 5
-168 9 -347 10 -282 1 -343 3 -382 10 -11 2 -29 39 -34 69 -13 70 -75 267
-110 347 -10 22 -18 42 -19 45 -26 88 -258 517 -287 528 -4 2 -8 8 -8 13 0 25
-201 257 -370 428 -120 122 -185 179 -269 239 -36 25 -67 50 -69 54 -2 5 -10
8 -17 8 -7 0 -15 3 -17 8 -10 23 -418 256 -468 268 -3 0 -25 10 -50 21 -25 11
-83 35 -130 53 -47 18 -123 48 -170 67 -120 48 -271 91 -385 108 -22 4 -56 10
-75 15 -19 5 -62 12 -95 15 -33 3 -76 8 -95 11 -19 3 -75 7 -125 9 -200 10
-260 16 -269 25 -12 12 -13 45 -15 313 l-1 207 -29 0 c-25 0 -31 -7 -54 -57z
m305 -825 c7 -7 49 -44 93 -83 86 -75 347 -334 383 -381 55 -72 122 -164 162
-224 24 -36 47 -66 52 -68 4 -2 8 -7 8 -12 0 -5 17 -35 39 -67 55 -84 168
-291 186 -342 25 -71 20 -76 -123 -109 -143 -34 -213 -49 -257 -57 -16 -3 -41
-7 -55 -10 -14 -3 -38 -7 -55 -9 -46 -6 -126 -16 -164 -22 -122 -17 -285 -24
-302 -13 -11 6 -13 123 -13 641 0 606 2 744 11 761 6 11 20 9 35 -5z m513 -3
c67 -13 330 -96 368 -117 10 -5 26 -11 35 -13 67 -14 370 -168 512 -260 163
-105 470 -375 470 -412 -1 -23 -81 -73 -240 -150 -144 -70 -325 -152 -343
-156 -6 -1 -14 -5 -17 -8 -3 -4 -19 -10 -37 -13 -42 -9 -55 6 -127 146 -32 62
-71 136 -87 163 -16 28 -33 59 -38 70 -5 12 -16 27 -25 34 -9 7 -16 18 -16 23
0 8 -36 64 -50 78 -3 3 -31 44 -62 92 -32 48 -66 97 -75 109 -10 11 -25 29
-33 39 -8 9 -31 36 -50 59 -19 24 -49 57 -65 74 -194 205 -215 230 -205 243 6
7 21 11 33 8 12 -2 36 -6 52 -9z m-965 -40 c13 -15 18 -59 19 -150 1 -27 1
-62 1 -78 0 -30 -43 -82 -60 -72 -6 3 -10 3 -10 -2 0 -4 -21 -9 -48 -9 -84 -2
-394 -90 -465 -132 -21 -12 -41 -22 -44 -22 -19 0 -301 -151 -377 -202 -108
-73 -149 -101 -156 -108 -3 -3 -27 -23 -55 -45 -145 -115 -318 -300 -400 -428
-11 -17 -27 -39 -35 -47 -16 -16 -100 -147 -131 -204 -46 -86 -87 -173 -135
-291 -36 -90 -59 -134 -75 -142 -25 -13 -276 -13 -296 0 -19 12 -16 40 16 136
28 85 45 124 122 289 21 45 39 86 40 90 0 4 10 19 20 34 10 14 19 29 19 32 0
4 20 37 45 75 25 38 45 73 45 80 0 6 4 11 8 11 5 0 16 15 24 34 71 148 436
522 673 689 124 88 315 202 355 212 3 1 37 16 75 34 39 18 106 46 150 62 43
17 85 35 92 41 7 6 13 8 13 5 0 -3 26 3 57 14 32 11 66 21 78 23 11 2 58 14
105 26 46 12 96 23 110 25 77 12 155 27 159 31 10 10 49 3 61 -11z m2566 -998
c0 -1 16 -22 36 -47 78 -100 236 -390 303 -559 20 -52 38 -99 40 -105 1 -6 5
-18 8 -26 37 -97 52 -176 36 -186 -9 -5 -598 -8 -1005 -5 l-62 1 -17 73 c-9
39 -19 83 -22 97 -3 14 -8 34 -10 44 -7 37 -64 231 -75 256 -6 14 -12 42 -13
62 -3 36 -1 38 49 62 48 22 76 33 94 37 4 1 16 8 27 15 11 8 27 14 37 14 10 0
18 5 18 10 0 6 6 10 13 10 16 0 191 84 226 109 14 10 71 42 126 71 55 29 109
59 120 67 16 11 66 11 71 0z m-2315 -119 c11 -17 7 -804 -4 -814 -9 -9 -1201
-15 -1254 -7 -22 4 -33 11 -33 22 0 25 57 129 103 190 49 64 182 199 251 256
27 22 56 47 65 57 28 28 177 116 284 167 90 42 204 84 262 95 11 2 38 9 60 15
22 5 58 13 80 16 22 3 56 9 75 14 47 10 101 5 111 -11z m1256 -351 c13 -8 89
-245 94 -292 0 -2 5 -19 10 -37 5 -18 12 -49 15 -68 3 -19 8 -38 10 -42 6 -10
-23 -16 -81 -18 -97 -4 -941 -3 -1042 0 l-103 4 -6 34 c-7 35 0 249 8 257 3 3
43 8 89 11 46 3 102 7 124 9 117 11 172 17 185 20 8 2 42 7 75 11 33 3 69 8
80 10 11 2 34 7 50 9 145 26 182 33 205 40 10 3 31 8 46 10 16 3 70 15 119 28
94 25 102 26 122 14z"/>
<path d="M6103 4873 c-36 -12 -87 -38 -108 -55 -69 -56 -114 -129 -117 -190
-5 -88 30 -168 108 -244 40 -40 85 -69 181 -115 70 -35 137 -72 149 -84 48
-48 57 -97 24 -135 -11 -13 -20 -26 -20 -30 0 -14 -94 -37 -135 -34 -43 4
-116 32 -146 56 -9 8 -23 33 -32 57 -12 38 -12 51 -1 95 8 28 14 53 14 55 0 2
-25 1 -56 -2 -77 -8 -94 -26 -94 -96 1 -100 49 -172 145 -216 124 -56 337 -48
444 17 125 76 170 230 104 361 -31 61 -97 127 -170 168 -28 17 -57 37 -63 44
-7 8 -22 15 -34 15 -29 0 -158 65 -183 93 -12 12 -24 39 -28 59 -6 31 -3 40
20 60 66 58 218 56 275 -3 41 -44 53 -85 39 -139 -6 -23 97 -27 122 -4 54 49
-47 239 -139 260 -15 3 -36 9 -47 12 -37 11 -214 8 -252 -5z"/>
<path d="M1527 4872 l-28 -3 3 -477 3 -477 250 1 c138 0 263 4 279 8 54 13
155 68 194 104 78 74 113 185 114 362 0 63 -2 126 -5 140 -31 131 -54 180
-117 238 -80 76 -160 100 -336 102 -77 1 -182 2 -234 3 -52 1 -108 1 -123 -1z
m421 -123 c40 -31 61 -93 69 -199 11 -141 6 -336 -11 -417 -8 -38 -35 -81 -63
-101 -50 -36 -131 -47 -134 -19 -7 53 -9 143 -12 412 -2 170 -1 321 1 334 4
22 8 23 62 19 41 -3 66 -11 88 -29z"/>
<path d="M2840 4872 l-36 -3 2 -462 c1 -254 2 -469 3 -477 1 -13 22 -16 141
-15 77 0 141 2 141 5 2 5 10 824 9 850 0 8 0 34 0 58 1 34 -3 42 -17 43 -82 3
-215 3 -243 1z"/>
<path d="M3613 4870 c-17 -5 -18 -29 -18 -480 l0 -475 343 -3 c188 -1 343 1
343 5 1 5 3 27 4 51 l3 42 -36 1 c-20 1 -102 2 -182 4 -80 2 -152 4 -160 4
-13 1 -15 27 -14 174 1 94 2 177 3 183 1 8 32 12 89 14 191 4 177 1 179 42 1
21 -3 41 -10 45 -7 4 -66 9 -132 11 -65 1 -122 7 -125 12 -3 4 -5 66 -5 137
l0 128 150 2 c83 1 159 2 171 2 18 1 20 7 20 51 l-1 50 -205 1 c-113 0 -249 1
-302 2 -53 1 -105 0 -115 -3z"/>
<path d="M4717 4865 c-6 -19 1 -937 8 -943 8 -8 95 -10 96 -3 1 6 5 134 9 361
4 184 7 189 56 115 21 -33 42 -61 47 -63 4 -2 7 -8 7 -12 0 -11 154 -258 212
-342 22 -31 45 -59 51 -61 20 -8 191 -5 202 4 7 5 10 169 9 471 -1 255 -2 466
-3 471 0 4 -21 7 -46 7 -25 0 -45 -3 -46 -7 0 -5 -2 -17 -5 -28 -2 -11 -5
-136 -6 -277 -2 -272 -5 -289 -45 -233 -10 14 -26 35 -36 48 -30 35 -92 140
-89 149 1 4 -2 8 -7 8 -5 0 -12 11 -15 25 -4 14 -11 25 -16 25 -6 0 -10 5 -10
10 0 6 -26 50 -58 98 -32 48 -61 95 -65 105 -3 9 -11 17 -17 17 -5 0 -10 6
-10 13 0 33 -34 45 -127 49 -56 2 -94 -1 -96 -7z"/>
<path d="M1267 3733 c-1 -1 -231 -3 -510 -4 -457 -2 -509 -4 -517 -19 -5 -9
-6 -21 -2 -26 5 -7 110 -12 292 -13 365 -4 450 -6 475 -14 14 -5 24 -22 33
-54 6 -27 14 -55 16 -63 11 -40 102 -276 139 -360 53 -122 140 -287 222 -419
118 -190 461 -562 645 -699 47 -35 96 -73 110 -83 14 -11 59 -41 100 -67 41
-26 77 -50 78 -54 2 -5 8 -8 13 -8 5 0 35 -17 66 -37 32 -20 166 -91 298 -156
277 -138 407 -223 533 -345 100 -98 138 -147 209 -276 27 -50 54 -91 59 -93
16 -5 24 221 11 328 -3 31 -18 91 -32 135 -26 83 -99 224 -115 224 -6 0 -10 6
-10 13 0 18 -117 137 -172 175 -49 34 -127 71 -225 108 -35 13 -71 28 -80 33
-24 13 -117 55 -123 56 -8 1 -143 71 -180 94 -19 11 -42 24 -50 28 -17 7 -173
111 -233 154 -191 138 -484 453 -610 654 -80 127 -244 451 -263 520 -2 6 -14
41 -29 78 -28 75 -32 112 -12 120 6 2 1161 4 2565 5 2184 0 2555 -2 2567 -14
19 -19 3 -78 -64 -229 -10 -22 -26 -60 -37 -85 -48 -116 -222 -431 -254 -460
-3 -3 -19 -25 -35 -50 -16 -25 -33 -47 -36 -50 -3 -3 -30 -33 -59 -68 -28 -35
-118 -129 -199 -210 -121 -122 -172 -164 -291 -244 -137 -91 -223 -144 -280
-171 -14 -6 -27 -14 -30 -17 -8 -9 -146 -74 -220 -104 -36 -15 -74 -31 -85
-35 -278 -119 -433 -264 -510 -481 -9 -25 -18 -56 -20 -70 -3 -14 -7 -36 -11
-50 -9 -34 -16 -344 -8 -364 9 -25 31 -2 61 61 51 114 154 243 275 348 46 41
166 125 177 125 6 0 11 4 11 9 0 5 98 58 218 119 273 137 354 181 459 249 28
18 55 33 58 33 16 0 199 138 320 240 57 49 281 276 330 335 28 33 55 66 62 73
7 7 20 26 30 42 9 17 21 30 25 30 4 0 15 14 24 32 9 18 23 38 30 45 18 19 124
191 124 202 0 5 4 11 8 13 8 3 111 208 145 288 59 138 123 317 119 333 -1 4 3
7 10 7 6 0 9 3 6 6 -8 8 21 92 34 100 10 6 143 10 600 17 92 1 170 6 175 10 4
4 2 16 -3 25 -9 13 -29 18 -90 20 -81 3 -6334 8 -6337 5z"/>
<path d="M1855 3340 c-6 -9 45 -108 104 -205 109 -176 276 -365 446 -502 33
-26 71 -58 85 -70 14 -13 28 -23 32 -23 3 0 13 -6 20 -14 15 -14 227 -156 293
-195 119 -71 513 -262 553 -267 8 -2 19 -9 23 -16 5 -7 9 -10 9 -5 0 11 56
-19 115 -61 179 -128 275 -335 278 -597 0 -89 -9 -239 -18 -279 -15 -64 -21
-334 -10 -436 22 -211 68 -293 165 -296 111 -2 183 90 198 256 12 137 7 337
-15 525 -9 78 -9 337 0 393 28 181 103 309 248 428 33 27 152 94 167 94 6 0
41 14 77 30 36 17 69 30 73 30 12 0 396 201 413 216 8 8 19 14 22 14 22 0 299
195 412 291 131 111 198 178 275 275 8 11 32 41 53 67 83 103 214 327 203 346
-7 11 -111 2 -133 -12 -5 -3 -32 -9 -59 -13 -27 -3 -53 -9 -59 -12 -5 -3 -18
-7 -30 -8 -11 -1 -64 -14 -119 -28 -54 -14 -108 -28 -120 -30 -11 -2 -84 -21
-161 -41 -77 -20 -155 -40 -173 -45 -18 -4 -38 -13 -45 -18 -12 -10 -88 -34
-117 -36 -9 -1 -20 -5 -25 -8 -6 -3 -37 -11 -70 -18 -33 -7 -68 -16 -78 -22
-9 -5 -32 -10 -50 -12 -17 -2 -63 -9 -102 -15 -38 -7 -81 -14 -95 -16 -14 -2
-41 -6 -60 -9 -19 -4 -57 -8 -85 -11 -27 -2 -77 -7 -110 -11 -33 -4 -88 -8
-122 -8 -35 -1 -63 -3 -63 -6 0 -6 -380 -3 -530 4 -146 8 -253 18 -330 31 -14
3 -45 7 -70 11 -69 9 -235 44 -297 63 -18 5 -33 8 -33 5 0 -3 -8 0 -17 5 -10
5 -31 11 -48 14 -41 8 -86 22 -126 40 -28 13 -193 59 -263 73 -10 2 -33 8 -50
13 -17 6 -42 12 -56 15 -14 3 -49 12 -78 20 -29 8 -55 15 -57 15 -3 1 -6 1 -7
2 -18 5 -225 52 -238 53 -9 1 -21 5 -28 10 -17 10 -111 15 -117 6z"/>
</g>
</svg>
